<?xml version="1.0" encoding="utf-8"?>
<!-- Generator: Adobe Illustrator 24.3.0, SVG Export Plug-In . SVG Version: 6.00 Build 0)  -->
<svg version="1.1" id="レイヤー_1" xmlns="http://www.w3.org/2000/svg" xmlns:xlink="http://www.w3.org/1999/xlink" x="0px"
	 y="0px" width="425.197px" height="28.346px" viewBox="0 0 425.197 28.346" style="enable-background:new 0 0 425.197 28.346;"
	 xml:space="preserve">
<style type="text/css">
	.st0{fill:#E8590C;}
</style>
<g>
	<path class="st0" d="M46.688,1.183l-22.26,23.094L2.089,1.182C1.626,0.7,0.854,0.688,0.371,1.153
		c-0.483,0.466-0.496,1.237-0.029,1.718l23.214,24.001c0.229,0.237,0.544,0.371,0.874,0.371c0,0,0,0,0.001,0
		c0.329,0,0.645-0.135,0.874-0.373L48.439,2.87c0.466-0.483,0.452-1.252-0.032-1.718C47.927,0.688,47.157,0.698,46.688,1.183z"/>
	<path class="st0" d="M156.228,12.274l-21.934,0.306c-0.671,0.01-1.208,0.561-1.199,1.233c0.01,0.671,0.507,1.154,1.233,1.199
		l20.576-0.288c-0.282,1.361-1.048,2.615-2.316,3.807c-1.744,1.632-4.213,2.937-7.343,3.879c-3.198,0.966-6.824,1.456-10.777,1.456
		c-3.951,0-7.566-0.49-10.748-1.455c-3.109-0.942-5.569-2.249-7.309-3.881c-1.644-1.544-2.444-3.193-2.444-5.041
		c0-1.851,0.799-3.5,2.444-5.041c1.735-1.631,4.195-2.937,7.309-3.884c3.184-0.963,6.8-1.452,10.748-1.452
		c3.951,0,7.576,0.489,10.777,1.453c3.135,0.945,5.605,2.252,7.342,3.882c0.487,0.459,1.258,0.436,1.718-0.054
		c0.459-0.49,0.436-1.259-0.054-1.718c-2.013-1.889-4.806-3.382-8.303-4.438c-3.429-1.033-7.291-1.557-11.479-1.557
		c-4.187,0-8.04,0.523-11.453,1.558c-3.476,1.055-6.258,2.549-8.267,4.436c-2.133,1.998-3.214,4.29-3.214,6.814
		c0,2.521,1.08,4.813,3.212,6.814c2.017,1.892,4.798,3.382,8.268,4.434c3.409,1.036,7.262,1.561,11.453,1.561
		s8.053-0.525,11.479-1.559c3.491-1.051,6.285-2.543,8.303-4.435c2.13-2.002,3.211-4.294,3.211-6.814
		c0-0.325-0.131-0.637-0.363-0.866S156.533,12.309,156.228,12.274z"/>
	<path class="st0" d="M371.834,23.736h-34.827V2.026c0-0.671-0.544-1.216-1.215-1.216s-1.215,0.544-1.215,1.216v22.925
		c0,0.671,0.544,1.216,1.215,1.216h36.042c0.67,0,1.215-0.544,1.215-1.216C373.049,24.28,372.504,23.736,371.834,23.736z"/>
	<path class="st0" d="M423.986,0.519c-0.385-0.551-1.142-0.683-1.692-0.3l-22.47,15.691L377.351,0.219
		c-0.55-0.383-1.307-0.251-1.692,0.3s-0.248,1.309,0.302,1.693l22.649,15.814v9.104c0,0.671,0.544,1.216,1.215,1.216
		s1.215-0.544,1.215-1.216v-9.104l22.646-15.814C424.234,1.828,424.371,1.07,423.986,0.519z"/>
	<path class="st0" d="M96.987,23.282h-30.85v-9.262h27.49c0.671,0,1.216-0.544,1.216-1.216s-0.544-1.216-1.216-1.216h-27.49V3.242
		h30.008c0.671,0,1.216-0.544,1.216-1.216s-0.544-1.216-1.216-1.216H64.921c-0.671,0-1.216,0.544-1.216,1.216v22.471
		c0,0.671,0.544,1.216,1.216,1.216h32.066c0.671,0,1.216-0.544,1.216-1.216C98.203,23.826,97.659,23.282,96.987,23.282z"/>
	<path class="st0" d="M207.315,23.282h-30.85v-9.262h27.49c0.671,0,1.216-0.544,1.216-1.216s-0.544-1.216-1.216-1.216h-27.49V3.242
		h30.008c0.671,0,1.216-0.544,1.216-1.216s-0.544-1.216-1.216-1.216h-31.224c-0.671,0-1.216,0.544-1.216,1.216v22.471
		c0,0.671,0.544,1.216,1.216,1.216h32.066c0.671,0,1.216-0.544,1.216-1.216C208.531,23.826,207.987,23.282,207.315,23.282z"/>
	<path class="st0" d="M315.07,23.282h-30.851v-9.262h27.49c0.67,0,1.215-0.544,1.215-1.216s-0.544-1.216-1.215-1.216h-27.49V3.242
		h30.008c0.67,0,1.215-0.544,1.215-1.216s-0.544-1.216-1.215-1.216h-31.223c-0.67,0-1.215,0.544-1.215,1.216v22.471
		c0,0.671,0.544,1.216,1.215,1.216h32.066c0.67,0,1.215-0.544,1.215-1.216C316.285,23.826,315.741,23.282,315.07,23.282z"/>
	<path class="st0" d="M243.107,0.682h-16.053c-0.671,0-1.216,0.544-1.216,1.216v23.185c0,0.671,0.544,1.216,1.216,1.216h16.053
		c11.37,0,22.993-1.522,22.993-12.808C266.1,4.992,258.364,0.682,243.107,0.682z M243.107,23.867h-14.837V3.114h14.837
		c13.836,0,20.562,3.394,20.562,10.376C263.669,18.88,261.178,23.867,243.107,23.867z"/>
</g>
</svg>
